# Blender v2.76 (sub 0) OBJ File: ''
# www.blender.org
mtllib Floor.mtl
o Cube.004
v 27.000000 6.494766 14.499993
v 27.000000 -1.005231 14.499993
v 27.000000 -1.005230 -14.499995
v 27.000000 6.494767 -14.499989
v 25.000000 6.494764 14.500000
v 25.000000 -1.005233 14.499984
v 25.000000 -1.005229 -14.499998
v 25.000000 6.494766 -14.499992
vn 1.000000 0.000000 0.000000
vn -1.000000 0.000000 0.000000
vn -0.000000 -0.000000 1.000000
vn -0.000000 -1.000000 -0.000000
vn 0.000000 0.000000 -1.000000
vn -0.000000 1.000000 0.000000
usemtl Material
s off
f 2//1 3//1 4//1
f 8//2 7//2 6//2
f 5//3 6//3 2//3
f 6//4 7//4 3//4
f 7//5 8//5 4//5
f 1//6 4//6 8//6
f 1//1 2//1 4//1
f 5//2 8//2 6//2
f 1//3 5//3 2//3
f 2//4 6//4 3//4
f 3//5 7//5 4//5
f 5//6 1//6 8//6
o Cube.003
v -25.000000 6.494766 14.499993
v -25.000000 -1.005231 14.499993
v -25.000000 -1.005230 -14.499995
v -25.000000 6.494767 -14.499989
v -27.000000 6.494764 14.500000
v -27.000000 -1.005233 14.499984
v -27.000000 -1.005229 -14.499998
v -27.000000 6.494766 -14.499992
vn 1.000000 -0.000000 0.000000
vn -1.000000 -0.000000 0.000000
vn -0.000000 -0.000000 1.000000
vn -0.000000 -1.000000 -0.000000
vn 0.000000 0.000000 -1.000000
vn -0.000000 1.000000 0.000000
usemtl Material
s off
f 10//7 11//7 12//7
f 16//8 15//8 14//8
f 13//9 14//9 10//9
f 14//10 15//10 11//10
f 15//11 16//11 12//11
f 9//12 12//12 16//12
f 9//7 10//7 12//7
f 13//8 16//8 14//8
f 9//9 13//9 10//9
f 10//10 14//10 11//10
f 11//11 15//11 12//11
f 13//12 9//12 16//12
o Cube.002
v 24.999989 6.494766 12.487530
v 24.999989 -1.005231 12.487530
v -24.999992 -1.005230 12.487530
v -24.999979 6.494767 12.487530
v 25.000000 6.494764 14.487530
v 24.999971 -1.005233 14.487530
v -24.999998 -1.005229 14.487530
v -24.999987 6.494766 14.487530
vn 0.000000 0.000000 -1.000000
vn -0.000000 0.000000 1.000000
vn 1.000000 -0.000000 0.000000
vn -0.000000 -1.000000 0.000000
vn -1.000000 0.000000 -0.000000
vn 0.000000 1.000000 0.000000
usemtl Material
s off
f 18//13 19//13 20//13
f 24//14 23//14 22//14
f 21//15 22//15 18//15
f 22//16 23//16 19//16
f 23//17 24//17 20//17
f 17//18 20//18 24//18
f 17//13 18//13 20//13
f 21//14 24//14 22//14
f 17//15 21//15 18//15
f 18//16 22//16 19//16
f 19//17 23//17 20//17
f 21//18 17//18 24//18
o Cube.001
v 24.999989 6.494766 -14.487534
v 24.999989 -1.005231 -14.487534
v -24.999992 -1.005230 -14.487534
v -24.999979 6.494767 -14.487534
v 25.000000 6.494764 -12.487534
v 24.999971 -1.005233 -12.487534
v -24.999998 -1.005229 -12.487534
v -24.999987 6.494766 -12.487534
vn 0.000000 0.000000 -1.000000
vn 0.000000 0.000000 1.000000
vn 1.000000 -0.000000 0.000000
vn -0.000000 -1.000000 0.000000
vn -1.000000 0.000000 -0.000000
vn 0.000000 1.000000 0.000000
usemtl Material
s off
f 26//19 27//19 28//19
f 32//20 31//20 30//20
f 29//21 30//21 26//21
f 30//22 31//22 27//22
f 31//23 32//23 28//23
f 25//24 28//24 32//24
f 25//19 26//19 28//19
f 29//20 32//20 30//20
f 25//21 29//21 26//21
f 26//22 30//22 27//22
f 27//23 31//23 28//23
f 29//24 25//24 32//24
o Cube
v 24.999989 -1.000000 -12.499993
v 24.999989 -1.000000 12.499994
v -24.999992 -1.000000 12.499992
v -24.999979 -1.000000 -12.499999
v 25.000000 1.000000 -12.499988
v 24.999971 1.000000 12.500002
v -24.999998 1.000000 12.499990
v -24.999987 1.000000 -12.499994
vn 0.000000 -1.000000 0.000000
vn 0.000000 1.000000 0.000000
vn 1.000000 0.000000 0.000000
vn -0.000000 0.000000 1.000000
vn -1.000000 -0.000000 -0.000000
vn 0.000000 0.000000 -1.000000
usemtl Material
s off
f 34//25 35//25 36//25
f 40//26 39//26 38//26
f 37//27 38//27 34//27
f 38//28 39//28 35//28
f 39//29 40//29 36//29
f 33//30 36//30 40//30
f 33//25 34//25 36//25
f 37//26 40//26 38//26
f 33//27 37//27 34//27
f 34//28 38//28 35//28
f 35//29 39//29 36//29
f 37//30 33//30 40//30
